# xmcd
#
# Track frame offsets: 
#        150
#        15527
#        29477
#        43807
#        57277
#        73875
#        92947
#        111652
#        129097
#        147770
#        170895
#        187095
#        210440
#        232420
#        258115
#
# Disc length: 3850 seconds
#
# Revision: 3
# Processed by: cddbd v1.5.2PL0 Copyright (c) Steve Scherf et al.
# Submitted via: ExactAudioCopy v0.95b2
#
DISCID=e60f080f
DTITLE=Eloise Laws - Love Factory
DYEAR=1999
DGENRE=Soul
TTITLE0=Love Factory
TTITLE1=Stay With Me
TTITLE2=You Made Me An Offer I Can't Refuse
TTITLE3=Tighten Him Up
TTITLE4=Touch Me
TTITLE5=You Got Me Loving You Again
TTITLE6=Love Goes Deeper Then That
TTITLE7=Ain't It Good Feeling Good
TTITLE8=Make It Last Forever
TTITLE9=Where Did We Go Wrong
TTITLE10=I Believe In You Baby
TTITLE11=Put A Littel Love Into It
TTITLE12=Camouflage
TTITLE13=Love Goes Deeper Than That (12' Version)
TTITLE14=Put A Little Love Into It (12' Version)
EXTD=
EXTT0=
EXTT1=
EXTT2=
EXTT3=
EXTT4=
EXTT5=
EXTT6=
EXTT7=
EXTT8=
EXTT9=
EXTT10=
EXTT11=
EXTT12=
EXTT13=
EXTT14=
PLAYORDER=
